<svg id="Capa_1" data-name="Capa 1" xmlns="http://www.w3.org/2000/svg" viewBox="0 0 800 800"><defs><style>.cls-1,.cls-2{fill:none;stroke:#363e50;stroke-miterlimit:10;}.cls-1{stroke-width:38.63px;}.cls-2{stroke-width:48.37px;}</style></defs><path class="cls-1" d="M580.61,362.75l16.51-4.81a199.85,199.85,0,0,0-28-67.57L554,298.62,527.71,272.3,501.37,246l8.26-15.06a200.3,200.3,0,0,0-67.58-28l-4.81,16.52H362.76L358,202.87a200.3,200.3,0,0,0-67.58,28L298.63,246,272.29,272.3,246,298.62l-15-8.25a199.85,199.85,0,0,0-28,67.57l16.51,4.81v74.49L202.88,442a200,200,0,0,0,28,67.58l15-8.26,26.34,26.34,26.34,26.35-8.26,15.05a200.08,200.08,0,0,0,67.58,28l4.81-16.51h74.48l4.81,16.51a200.08,200.08,0,0,0,67.58-28l-8.26-15.05,26.34-26.35L554,501.36l15.06,8.27a200,200,0,0,0,28-67.59l-16.51-4.8ZM400,513.14A112.76,112.76,0,0,1,320,480h0a113.13,113.13,0,1,1,160,0h0A112.76,112.76,0,0,1,400,513.14Z"/><circle class="cls-2" cx="400" cy="400" r="362.75"/></svg>